<svg width="50" height="50" viewBox="0 0 50 50" fill="none" xmlns="http://www.w3.org/2000/svg">
<g clip-path="url(#clip0_61_116)">
<path d="M25 4.16699C25.5524 4.16699 26.082 4.38678 26.4727 4.77734L45.2227 23.5273C46.5351 24.8398 45.6062 27.083 43.75 27.083H41.667V39.583C41.667 41.2406 41.008 42.8308 39.8359 44.0029C38.6639 45.1748 37.0744 45.8329 35.417 45.833H33.333V31.25C33.3331 29.6559 32.7245 28.1218 31.6309 26.9619C30.5372 25.8021 29.0416 25.1043 27.4502 25.0107L27.083 25H22.917C21.2594 25 19.6692 25.658 18.4971 26.8301C17.325 28.0022 16.667 29.5924 16.667 31.25V45.833H14.583C12.9256 45.8329 11.3361 45.1748 10.1641 44.0029C8.99196 42.8308 8.33301 41.2406 8.33301 39.583V27.083H6.25C4.39592 27.083 3.46499 24.8398 4.77734 23.5273L23.5273 4.77734C23.918 4.38679 24.4476 4.16701 25 4.16699ZM27.083 29.167C27.6355 29.167 28.166 29.3857 28.5566 29.7764C28.9473 30.1671 29.167 30.6975 29.167 31.25V45.833H20.833V31.25C20.8331 30.7397 21.0213 30.2475 21.3604 29.8662C21.6994 29.4849 22.1661 29.2404 22.6729 29.1807L22.917 29.167H27.083Z" fill="#FF8B00"/>
<path d="M25 4.16699C25.5524 4.16699 26.082 4.38678 26.4727 4.77734L45.2227 23.5273C46.5351 24.8398 45.6062 27.083 43.75 27.083H41.667V39.583C41.667 41.2406 41.008 42.8308 39.8359 44.0029C38.6639 45.1748 37.0744 45.8329 35.417 45.833H33.333V31.25C33.3331 29.6559 32.7245 28.1218 31.6309 26.9619C30.5372 25.8021 29.0416 25.1043 27.4502 25.0107L27.083 25H22.917C21.2594 25 19.6692 25.658 18.4971 26.8301C17.325 28.0022 16.667 29.5924 16.667 31.25V45.833H14.583C12.9256 45.8329 11.3361 45.1748 10.1641 44.0029C8.99196 42.8308 8.33301 41.2406 8.33301 39.583V27.083H6.25C4.39592 27.083 3.46499 24.8398 4.77734 23.5273L23.5273 4.77734C23.918 4.38679 24.4476 4.16701 25 4.16699ZM27.083 29.167C27.6355 29.167 28.166 29.3857 28.5566 29.7764C28.9473 30.1671 29.167 30.6975 29.167 31.25V45.833H20.833V31.25C20.8331 30.7397 21.0213 30.2475 21.3604 29.8662C21.6994 29.4849 22.1661 29.2404 22.6729 29.1807L22.917 29.167H27.083Z" stroke="#FF8B00"/>
</g>
<defs>
<clipPath id="clip0_61_116">
<rect width="50" height="50" fill="white"/>
</clipPath>
</defs>
</svg>
