<svg width="50" height="50" viewBox="0 0 50 50" fill="none" xmlns="http://www.w3.org/2000/svg">
<g clip-path="url(#clip0_99_278)">
<path d="M17 19C17 21.1217 17.8429 23.1566 19.3431 24.6569C20.8434 26.1571 22.8783 27 25 27C27.1217 27 29.1566 26.1571 30.6569 24.6569C32.1571 23.1566 33 21.1217 33 19C33 16.8783 32.1571 14.8434 30.6569 13.3431C29.1566 11.8429 27.1217 11 25 11C22.8783 11 20.8434 11.8429 19.3431 13.3431C17.8429 14.8434 17 16.8783 17 19Z" fill="#FF8B00" stroke="#FF8B00" stroke-width="2" stroke-linecap="round" stroke-linejoin="round"/>
<path d="M12 43.5V39.3333C12 37.1232 12.878 35.0036 14.4408 33.4408C16.0036 31.878 18.1232 31 20.3333 31H28.6667C30.8768 31 32.9964 31.878 34.5592 33.4408C36.122 35.0036 37 37.1232 37 39.3333V43.5" fill="#FF8B00"/>
</g>
<defs>
<clipPath id="clip0_99_278">
<rect width="50" height="50" fill="white"/>
</clipPath>
</defs>
</svg>
