<svg width="25" height="25" viewBox="0 0 25 25" fill="none" xmlns="http://www.w3.org/2000/svg">
<g clip-path="url(#clip0_80_147)">
<path d="M5.20837 13.5418C5.20837 12.9893 5.42787 12.4594 5.81857 12.0687C6.20927 11.678 6.73917 11.4585 7.29171 11.4585H17.7084C18.2609 11.4585 18.7908 11.678 19.1815 12.0687C19.5722 12.4594 19.7917 12.9893 19.7917 13.5418V19.7918C19.7917 20.3444 19.5722 20.8743 19.1815 21.265C18.7908 21.6557 18.2609 21.8752 17.7084 21.8752H7.29171C6.73917 21.8752 6.20927 21.6557 5.81857 21.265C5.42787 20.8743 5.20837 20.3444 5.20837 19.7918V13.5418Z" stroke="#45321E" stroke-width="1.5" stroke-linecap="round" stroke-linejoin="round"/>
<path d="M11.4584 16.6667C11.4584 16.9429 11.5681 17.2079 11.7635 17.4032C11.9588 17.5986 12.2238 17.7083 12.5 17.7083C12.7763 17.7083 13.0413 17.5986 13.2366 17.4032C13.432 17.2079 13.5417 16.9429 13.5417 16.6667C13.5417 16.3904 13.432 16.1254 13.2366 15.9301C13.0413 15.7347 12.7763 15.625 12.5 15.625C12.2238 15.625 11.9588 15.7347 11.7635 15.9301C11.5681 16.1254 11.4584 16.3904 11.4584 16.6667Z" stroke="#45321E" stroke-width="1.5" stroke-linecap="round" stroke-linejoin="round"/>
<path d="M8.33337 11.4583V7.29167C8.33337 6.1866 8.77236 5.12679 9.55376 4.34539C10.3352 3.56399 11.395 3.125 12.5 3.125C13.6051 3.125 14.6649 3.56399 15.4463 4.34539C16.2277 5.12679 16.6667 6.1866 16.6667 7.29167V11.4583" stroke="#45321E" stroke-width="1.5" stroke-linecap="round" stroke-linejoin="round"/>
</g>
<defs>
<clipPath id="clip0_80_147">
<rect width="25" height="25" fill="white"/>
</clipPath>
</defs>
</svg>
