<svg width="25" height="25" viewBox="0 0 25 25" fill="none" xmlns="http://www.w3.org/2000/svg">
<g clip-path="url(#clip0_80_130)">
<path d="M12.5 13.5415C13.3288 13.5415 14.1237 13.2123 14.7097 12.6262C15.2958 12.0402 15.625 11.2453 15.625 10.4165C15.625 9.5877 15.2958 8.79285 14.7097 8.2068C14.1237 7.62074 13.3288 7.2915 12.5 7.2915C11.6712 7.2915 10.8763 7.62074 10.2903 8.2068C9.70424 8.79285 9.375 9.5877 9.375 10.4165C9.375 11.2453 9.70424 12.0402 10.2903 12.6262C10.8763 13.2123 11.6712 13.5415 12.5 13.5415Z" stroke="#45321E" stroke-width="1.7" stroke-linecap="round" stroke-linejoin="round"/>
<path d="M12.5 3.125C20 3.125 21.875 5 21.875 12.5C21.875 20 20 21.875 12.5 21.875C5 21.875 3.125 20 3.125 12.5C3.125 5 5 3.125 12.5 3.125Z" stroke="#45321E" stroke-width="1.7" stroke-linecap="round" stroke-linejoin="round"/>
<path d="M6.25 20.8853V20.8332C6.25 19.7281 6.68899 18.6683 7.47039 17.8869C8.25179 17.1055 9.3116 16.6665 10.4167 16.6665H14.5833C15.6884 16.6665 16.7482 17.1055 17.5296 17.8869C18.311 18.6683 18.75 19.7281 18.75 20.8332V20.8853" stroke="#45321E" stroke-width="1.7" stroke-linecap="round" stroke-linejoin="round"/>
</g>
<defs>
<clipPath id="clip0_80_130">
<rect width="25" height="25" fill="white"/>
</clipPath>
</defs>
</svg>
