<svg version="1.0" xmlns="http://www.w3.org/2000/svg" width="198.000000pt" height="190.000000pt" viewBox="0 0 198.000000 190.000000" preserveAspectRatio="xMidYMid meet">
  <g transform="translate(0.000000,190.000000) scale(0.100000,-0.100000)" fill="#edae5f" stroke="none">
    <path d="M685 1816 c-135 -51 -211 -240 -161 -398 23 -72 39 -108 48 -108 5 0 8 -6 8 -13 0 -22 82 -107 102 -107 10 0 18 -4 18 -10 0 -5 23 -10 50 -10 28 0 50 5 50 10 0 6 8 10 18 10 34 1 102 86 102 129 0 11 5 21 11 23 17 6 18 313 2 329 -7 7 -13 19 -13 26 0 13 -7 23 -37 58 -7 7 -13 18 -13 22 0 5 -16 15 -35 23 -19 8 -35 17 -35 22 0 12 -80 8 -115 -6z"/>
    <path d="M1235 1820 c-3 -5 -17 -10 -31 -10 -13 0 -24 -4 -24 -10 0 -5 -4 -10 -10 -10 -25 0 -110 -102 -110 -133 0 -9 -6 -17 -12 -20 -18 -5 -17 -228 1 -287 46 -153 107 -214 208 -208 51 3 69 9 100 34 47 38 112 131 113 162 0 12 5 22 10 22 6 0 10 18 10 39 0 22 5 43 10 46 6 3 10 39 10 80 0 41 -4 77 -10 80 -5 3 -10 17 -10 30 0 53 -63 137 -131 173 -42 23 -113 29 -124 12z"/>
    <path d="M298 1264 c-10 -3 -18 -10 -18 -15 0 -5 -5 -9 -10 -9 -14 0 -69 -62 -70 -77 0 -7 -4 -13 -10 -13 -5 0 -10 -7 -10 -15 0 -8 -4 -15 -8 -15 -13 0 -34 -87 -39 -163 -8 -119 51 -232 150 -286 40 -22 101 -28 112 -11 3 6 13 10 22 10 37 0 108 98 132 183 6 20 16 52 21 70 19 63 11 125 -26 212 -15 34 -77 105 -92 105 -6 0 -12 5 -14 12 -4 12 -109 21 -140 12z"/>
    <path d="M1618 1264 c-10 -3 -18 -10 -18 -15 0 -5 -6 -9 -13 -9 -30 0 -129 -125 -171 -215 -15 -33 -31 -68 -37 -77 -17 -33 -10 -136 12 -181 44 -87 131 -130 214 -106 25 7 45 17 45 21 0 4 5 8 11 8 15 0 105 95 122 129 7 14 18 35 24 46 34 63 38 83 38 175 0 95 -10 134 -42 168 -7 7 -19 23 -28 35 -15 21 -111 34 -157 21z"/>
    <path d="M900 954 c-45 -16 -70 -34 -120 -85 -62 -63 -100 -107 -100 -114 0 -8 -80 -84 -131 -125 -72 -58 -129 -119 -129 -140 0 -10 -4 -22 -10 -25 -13 -8 -13 -102 0 -110 6 -3 10 -15 10 -26 0 -10 5 -19 10 -19 6 0 10 -6 10 -13 0 -15 31 -44 70 -66 33 -19 173 -26 230 -11 25 6 59 14 75 17 17 3 36 11 44 17 18 14 265 13 283 -1 39 -31 328 -32 328 -2 0 5 6 9 13 9 20 0 77 60 77 81 0 11 5 19 10 19 6 0 10 25 10 55 0 30 -4 55 -10 55 -5 0 -10 6 -10 14 0 7 -11 25 -25 39 -24 24 -45 35 -122 68 -18 8 -33 17 -33 21 0 5 -9 8 -19 8 -20 0 -111 80 -111 97 0 5 -8 18 -17 29 -10 10 -31 39 -47 64 -38 57 -96 120 -112 120 -7 0 -14 5 -16 12 -5 13 -130 22 -158 12z"/>
  </g>
</svg>
